<svg xmlns="http://www.w3.org/2000/svg" xmlns:xlink="http://www.w3.org/1999/xlink" viewBox="0 0 600 400"><defs><radialGradient id="Áåçûìÿííûé_ãðàäèåíò_11" cx="238.66681" cy="215.3332" r="317.88105" gradientTransform="matrix(1, 0, 0, -1, -0.00001, 400)" gradientUnits="userSpaceOnUse"><stop offset="0" stop-color="#5761d7"/><stop offset="0.0311" stop-color="#525bce"/><stop offset="0.17629" stop-color="#3e41a6"/><stop offset="0.32632" stop-color="#2d2b85"/><stop offset="0.48026" stop-color="#201a6c"/><stop offset="0.63966" stop-color="#160e5a"/><stop offset="0.80794" stop-color="#11074f"/><stop offset="1" stop-color="#0f054c"/></radialGradient><radialGradient id="Áåçûìÿííûé_ãðàäèåíò_19" cx="-13.0002" cy="93.59395" r="439.3419" gradientTransform="matrix(-1, 0, 0, 1, 600, 0)" gradientUnits="userSpaceOnUse"><stop offset="0" stop-color="#ff2c9c"/><stop offset="0.03006" stop-color="#f62f9f"/><stop offset="0.20227" stop-color="#c63eb0"/><stop offset="0.37372" stop-color="#9e4bbe"/><stop offset="0.54126" stop-color="#7f54c9"/><stop offset="0.70387" stop-color="#695bd1"/><stop offset="0.85937" stop-color="#5c60d5"/><stop offset="1" stop-color="#5761d7"/></radialGradient></defs><title>1055 [Converted]2222</title><g style="isolation:isolate"><g id="Ñëîé_1" data-name="Ñëîé 1"><rect width="599.99999" height="400" transform="translate(599.99999 400) rotate(180)" fill="#0f054c"/><rect width="599.99999" height="400" transform="translate(599.99999 400) rotate(180)" opacity="0.9" fill="url(#Áåçûìÿííûé_ãðàäèåíò_11)" style="mix-blend-mode:lighten"/><path d="M583.36713,39.7253a4.96217,4.96217,0,0,0-4.49073,0c-.9319.5381-1.1628,1.3272-.6943,1.99L508.6567,81.8564l-.0009,50.6692-16.937,9.7786-.0015,55.1137-58.0194,33.4973-9.0406-5.2197,44.7402-25.8303.0004-30.2119-.1777-.103-50.8677-29.3682V129.9365l28.7673-16.6087a5.02141,5.02141,0,0,0,4.0994-.1845,1.36854,1.36854,0,0,0,0-2.5928,4.963,4.963,0,0,0-4.4907,0c-1.1182.6455-1.2184,1.6499-.3201,2.3667l-28.7668,16.6091v11.066l.1777.103,50.8677,29.3681-.0005,29.3916-33.8042,19.5169.0005-12.5872,15.4971-8.947a5.02014,5.02014,0,0,0,4.0992-.1848,1.36835,1.36835,0,0,0,.0001-2.5925,4.96232,4.96232,0,0,0-4.4908,0c-1.1182.6455-1.2183,1.6499-.3198,2.3667l-15.4967,8.9475-.0005,13.4077-10.2246,5.9031-12.0899-6.98.0006-21.9207,22.8041-13.1665.0005-15.1533-.1777-.103-48.0059-27.7161c.8986-.7165.7985-1.7209-.3197-2.3664a4.96232,4.96232,0,0,0-4.4908,0,1.36847,1.36847,0,0,0,0,2.5927,5.02089,5.02089,0,0,0,4.0992.1846l48.184,27.8184-.0005,14.333-22.0932,12.7551.0004-15.1086-.1777-.1031-29.3709-16.9568c.8986-.7168.7986-1.7211-.3197-2.3669a4.96334,4.96334,0,0,0-4.4907.0002,1.36842,1.36842,0,0,0-.0001,2.5926,5.02106,5.02106,0,0,0,4.0991.1848l29.5491,17.0593-.001,37.03-8.4917-4.9025-13.9916,8.0781-12.673-7.3167.0005-17.779-.1777-.1031-33.5024-19.3422.0004-16.76a4.40117,4.40117,0,0,0,1.89-.5174,1.36835,1.36835,0,0,0,.0001-2.5925,4.96232,4.96232,0,0,0-4.4908,0,1.36833,1.36833,0,0,0,0,2.5925,4.39984,4.39984,0,0,0,1.8897.5174l-.0004,17.1701.1778.103,33.5024,19.3423-.0005,16.9583-54.5244-31.4798.001-33.3696,29.5711-17.0727,27.1374-.0005.0825-.0474,46.5652-26.8843a5.02041,5.02041,0,0,0,4.099-.1848,1.36856,1.36856,0,0,0,.0002-2.5928,4.96417,4.96417,0,0,0-4.4908,0c-1.1183.6458-1.2184,1.6502-.3197,2.367l-46.1269,26.6313-25.7154.0005,85.5453-49.3891a5.02045,5.02045,0,0,0,4.099-.1848,1.36856,1.36856,0,0,0,.0001-2.5928,4.96417,4.96417,0,0,0-4.4908,0c-1.1183.6457-1.2184,1.6501-.3197,2.3669L320.0444,148.0835l-.0009,34.1899.1777.103,67.7309,39.1043-13.6328,7.8708L258.6816,162.5874l.001-39.8379-.1777-.103L219.1797,99.9421c.8986-.7168.7986-1.7212-.3197-2.3667a4.96211,4.96211,0,0,0-4.4907,0,1.36854,1.36854,0,0,0,0,2.5928,5.02044,5.02044,0,0,0,4.099.1845l39.5034,22.8069-.001,39.8379.1777.1031,115.4603,66.6611-12.9784,7.4931L246.2725,171.2295l-68.1983.0004-42.624-24.6088.0009-37.8177a4.01053,4.01053,0,0,0,1.2329-.434,1.36856,1.36856,0,0,0,0-2.5928,4.964,4.964,0,0,0-4.4907,0,1.36854,1.36854,0,0,0-.0001,2.5928,4.71971,4.71971,0,0,0,2.547.5202l-.0009,38.1416.1777.103,42.9658,24.8067,68.1983-.0005L342.618,227.676l-19.4168.0007-32.9473-19.0224H264.874l-.082.0478-35.1977,20.3211a5.021,5.021,0,0,0-4.0994.1848,1.36835,1.36835,0,0,0-.0001,2.5925,4.96211,4.96211,0,0,0,4.4907,0c1.1185-.6457,1.2184-1.6504.3194-2.3669l34.7605-20.0684h24.9971l32.9482,19.0225,20.8385-.001,16.0705,9.2783-34.6411,20.0002-9.8504-5.6875v-14.927L290.405,222.604c.8988-.7168.799-1.7212-.3194-2.367a4.96417,4.96417,0,0,0-4.4908,0,1.36856,1.36856,0,0,0,0,2.5928,5.02091,5.02091,0,0,0,4.0997.1846l25.0228,14.4465v14.1064l-26.6851-15.4072H275.3945l-.082.0479-15.065,8.698a5.01991,5.01991,0,0,0-4.0996.1845,1.36854,1.36854,0,0,0-.0001,2.5928,4.96334,4.96334,0,0,0,4.4907-.0002c1.1184-.6458,1.2184-1.6502.3196-2.367l14.6278-8.445h12.2549l36.7273,21.2043-6.6726,3.8523,21.2927,12.2935-9.9689,5.7553H314.1406l-10.7887-6.2282c.8597-.7149.7439-1.7019-.3592-2.3389a4.96417,4.96417,0,0,0-4.4908,0,1.36856,1.36856,0,0,0-.0001,2.5928,5.01316,5.01316,0,0,0,4.1484.1613l11.3,6.524h14.0377l-25.4263,14.6797-59.8223-34.5391-43.0459.001-.0821.0478-24.2356,13.9925a5.02021,5.02021,0,0,0-4.0999.1843,1.36854,1.36854,0,0,0-.0002,2.5928,4.96417,4.96417,0,0,0,4.4908,0c1.1182-.6458,1.2183-1.6502.3198-2.367L199.8848,261.54l42.6631-.001,46.14,26.6387H268.9385l-19.3046-11.1445c.8992-.7166.7994-1.7215-.3191-2.367a4.96293,4.96293,0,0,0-4.4908,0,1.36854,1.36854,0,0,0,0,2.5928,5.02089,5.02089,0,0,0,4.0992.1846l19.8239,11.445h21.1722l11.9318,6.889L271.479,313.3125l-97.0649.0009-75.409-43.5371c.8989-.7168.799-1.7212-.3194-2.3669a4.96324,4.96324,0,0,0-4.4908,0,1.36854,1.36854,0,0,0,0,2.5928,5.02105,5.02105,0,0,0,4.0996.1843l75.9282,43.8379,96.0249-.001-12.0484,6.9561-71.8515.0009-.0821.0479-35.4338,20.4578a5.02021,5.02021,0,0,0-4.0999.1843,1.36849,1.36849,0,0,0-.0001,2.5927,4.96232,4.96232,0,0,0,4.4908,0c1.1183-.6457,1.2184-1.6501.3197-2.3669l34.9968-20.2048,71.8515-.001.0821-.0479,81.4261-47.0112,9.0406,5.2195-85.6083,49.4255H200.7236l-.082.0479-75.623,43.6611-104.7666.001L0,361.2937v.8213l20.0605,11.5822,105.1495-.0009.082-.0479,47.457-27.3994-.001,16.2168-31.281,18.061a5.02054,5.02054,0,0,0-4.0997.1843,1.36854,1.36854,0,0,0-.0001,2.5928,4.96417,4.96417,0,0,0,4.4908,0c1.1183-.6457,1.2183-1.6501.3196-2.3669l31.2814-18.0611.001-16.9433h-.1629l27.6179-15.9453h62.6075l.082-.0479L349.65,280.2612l10.2683,5.9285L192.959,382.583,192.9585,400h.7109l.0005-17.0069,166.9589-96.3933,12.6883,7.3255-86.1237,49.7241-.0002,8.8894-15.2694,8.8157v20.4453l-29.6116,17.0954a5.02106,5.02106,0,0,0-4.0991.1848,1.83619,1.83619,0,0,0-.8585.92h6.1922a1.6042,1.6042,0,0,0-.5239-.6946l29.6119-17.0955V361.7646l14.5583-8.4055-.0007,32.7405,8.5929,4.9612L280.302,400h1.4211l14.7727-8.5291L311.2686,400h1.4213l-24.7866-14.3106.001-41.6299,86.1233-49.7241,11.5503,6.6687-60.9477,35.188a5.0208,5.0208,0,0,0-4.0998.1843,1.36856,1.36856,0,0,0-.0001,2.5928,4.96355,4.96355,0,0,0,4.4908-.0002c1.1183-.6455,1.2183-1.6499.3197-2.3667l60.9477-35.188,11.1503,6.4375-72.9051,42.0915H304.7192a1.82469,1.82469,0,0,0-.869-.9404,4.96232,4.96232,0,0,0-4.4908,0,1.36835,1.36835,0,0,0,0,2.5925,4.96232,4.96232,0,0,0,4.4908,0,1.82445,1.82445,0,0,0,.8693-.9411h20.0046l.0825-.0479,73.3428-42.3442,4.502,2.5991,3.4641-2,17.468,10.085-.0005,14.0351-14.4316,8.332v-.038H386.5059l-.0826.0478-24.8488,14.3467a5.02039,5.02039,0,0,0-4.0993.1848,1.36835,1.36835,0,0,0,0,2.5925,4.96211,4.96211,0,0,0,4.4907,0c1.1185-.6457,1.2184-1.6504.3192-2.3672l24.4112-14.0937h21.2895l-42.426,24.4944a5.00475,5.00475,0,0,0-4.1875.143,1.3684,1.3684,0,0,0-.0001,2.5926,4.96293,4.96293,0,0,0,4.4908,0c1.091-.6299,1.2199-1.6035.3913-2.3162l52.9185-30.5517-.0004,6.7531-31.4839,18.1778v12.8339l-25.6331,14.7994a5.02115,5.02115,0,0,0-4.0998.1843,1.36854,1.36854,0,0,0-.0001,2.5928,4.96272,4.96272,0,0,0,4.4907,0c1.1184-.6455,1.2184-1.6502.3197-2.3667l25.6335-14.7996v-12.834l31.4839-18.1777.0005-7.574,4.4101-2.5461.0005-14.8555-17.4684-10.085,11.4794-6.6276,35.9436,20.7517-.0006,23.5918L429.842,360.2575a5.00679,5.00679,0,0,0-4.1879.1431,1.36854,1.36854,0,0,0-.0001,2.5928,4.963,4.963,0,0,0,4.4907-.0003c1.091-.6296,1.2201-1.6032.3917-2.3159l23.712-13.6897-.0005,19.0574-18.7333,10.8154L435.514,400h.711l.0006-22.7295,18.0222-10.4051L454.2469,400h.7109l.0022-77.835-35.9441-20.7517,12.8903-7.4424,46.9776,27.1228-.002,64.5957,22.5821,13.0381L501.4638,400h.7109l.0001-1.6827-22.582-13.038.0019-64.5957-46.9779-27.1228,9.5536-5.5157,63.4009,36.6043-.0015,55.1142L540.621,400h1.4215l-35.7617-20.6465.0014-55.1143-63.4013-36.6045,15.4837-8.9394,105.485,60.9013-.001,27.4249L600,387.8935v-.8208l-35.4404-20.4614.0009-27.4248-59.3334-34.2559h46.9238L600,332.5564v-.8206l-47.6587-27.5161H503.9957l-44.9206-25.9346,17.9954-10.3896,38.6136,22.2939,62-.001L600,303.0727v-.8208l-4.89154-2.8242L600,299.4275v-.711l-6.12286.0003-16.00264-9.2393-62,.001-10.805-6.2383h26.3582l.0826-.0479,13.222-7.6337,55.08508-.001.18262.1055v-.8165l-54.0363.001,14.8846-8.5935a5.02076,5.02076,0,0,0,4.0993-.1848,1.36835,1.36835,0,0,0,.0001-2.5925,4.96211,4.96211,0,0,0-4.4907,0c-1.1186.6457-1.2184,1.6504-.3193,2.3672l-28.9004,16.6853H503.8381L477.781,267.4851l9.6292-5.5594-6.1958-3.5771h18.0112l23.5438,13.5925c-.8992.7168-.7994,1.7215.3191,2.3672a4.964,4.964,0,0,0,4.4907,0,1.36854,1.36854,0,0,0,.0001-2.5928,5.019,5.019,0,0,0-4.0992-.1845L499.416,257.6377H479.9829L466.8061,250.03l8.1033-4.6785h14.3743l12.6367-7.2959h9.4307l21.2968,12.2959c-.9558.7188-.877,1.7488.2629,2.407a4.964,4.964,0,0,0,4.4907,0,1.36856,1.36856,0,0,0,.0001-2.5928,5.03267,5.03267,0,0,0-4.0304-.2172l-21.8297-12.6038H501.73l-12.6367,7.2959H476.1408l25.9061-14.957h13.9878l29.1572,16.8339L600,246.5168v-.7109l-54.6177.0007-29.1572-16.834H501.8564l-.0825.0479-35.6783,20.5993-9.3617-5.4047,40.3164-23.2767,28.436-.0002,23.4585,13.5442L600,234.4817v-.711l-50.8647.0008-22.228-12.8333L600,220.9377v-.7109l-103.1401.0007-.0826.0479-40.754,23.5293-10.6359-6.1407,56.2195-32.458L600,205.205v-.7109l-71.7012.0007L600,163.0979v-.8203l-73.1223,42.2172-24.7536.0003,53.3036-30.7749V166.937l25.5055-14.7249a5.02026,5.02026,0,0,0,4.09909-.1848,1.36856,1.36856,0,0,0,.00006-2.5928,4.96314,4.96314,0,0,0-4.49075.0003c-1.1183.6455-1.2184,1.6499-.3198,2.3667l-13.8878,8.018.0005-18.5876L600,121.7954v-.8211l-34.3765,19.8474-.0005,19.4085-10.9062,6.2966V173.31l-53.7397,31.0269.1785.3091-56.4788,32.6079-10.2684-5.9285,58.0198-33.4973.0015-55.1138L600,80.6089v-.8213l-90.6333,52.3276.001-49.8486,69.3668-40.0489c.0493.033.0878.0691.1418.1004a4.96411,4.96411,0,0,0,4.49077,0A1.36855,1.36855,0,0,0,583.36713,39.7253ZM485.9883,261.9257,402.6514,310.041l-83.334-48.1133,83.3369-48.1152Z" transform="translate(0)" opacity="0.8" fill="url(#Áåçûìÿííûé_ãðàäèåíò_19)"/><path d="M600,125.9433l-14.81445,8.5532-.001,27.5582L453.5886,238.031l-9.9996-5.773,67.8822-39.1926.0001-7.0066,12.0346-6.9485.0004-16.1147,23.3389-13.4746a3.95844,3.95844,0,0,0,3.2312-.1455,1.07874,1.07874,0,0,0,0-2.0437,3.912,3.912,0,0,0-3.5396,0c-.8814.509-.9603,1.3007-.2521,1.8654l-23.3389,13.4751-.0005,16.1148-11.474,6.6245.0004-25.8047-.1402-.0811-6.6329-3.8293,39.7931-22.9749.0005-25.8369,28.269-16.3208a3.95646,3.95646,0,0,0,3.2312-.1455,1.07874,1.07874,0,0,0,0-2.0437,3.91148,3.91148,0,0,0-3.5395.0003c-.8814.5088-.9603,1.3005-.2522,1.8652l-28.2691,16.3213-.0004,25.8369-39.7931,22.9744L439.4434,118.021l.0004-28.9016a3.46766,3.46766,0,0,0,1.4897-.4078,1.07853,1.07853,0,0,0,0-2.0434,3.91148,3.91148,0,0,0-3.5395,0,1.07853,1.07853,0,0,0-.0001,2.0434,3.46672,3.46672,0,0,0,1.4894.4078l-.0005,29.2248.1401.0811,38.9135,22.4668-28.3588.0004-22.9307-13.2392c.7081-.565.6293-1.3565-.2521-1.8655a3.91241,3.91241,0,0,0-3.5395,0,1.07872,1.07872,0,0,0-.0001,2.0437,3.95683,3.95683,0,0,0,3.2312.1455l23.3408,13.4761,29.4668-.0005v-.0076l32.0171,18.4851-.0005,32.8121-67.8829,39.1916-9.1021-5.2549,48.0378-27.7356a3.95644,3.95644,0,0,0,3.2312-.1455,1.07872,1.07872,0,0,0,.0001-2.0437,3.91169,3.91169,0,0,0-3.5396.0003c-.8814.5088-.9603,1.3005-.2521,1.8652l-48.0387,27.7353-8.7887-5.0739,57.464-33.1765,15.617-.0003a1.44047,1.44047,0,0,0,.6852.7417,3.91241,3.91241,0,0,0,3.5395,0,1.07872,1.07872,0,0,0,.0001-2.0437,3.91241,3.91241,0,0,0-3.5395,0,1.43937,1.43937,0,0,0-.6851.7415l-15.7676.0002-.065.0376L424.0143,220.957l-3.547-2.0479-.1402.0801-2.59,1.4954-13.7679-7.9485.0005-11.0615,11.375-6.5677v.0296l17.8487-.0005,19.6504-11.3452a3.95722,3.95722,0,0,0,3.2312-.1455,1.07858,1.07858,0,0,0,.0001-2.0435,3.912,3.912,0,0,0-3.5396,0c-.8813.5088-.9602,1.3006-.2522,1.8653L433.043,194.3755l-16.7784.0004L449.7027,175.07a3.94514,3.94514,0,0,0,3.3007-.1128,1.07853,1.07853,0,0,0,.0001-2.0434,3.91076,3.91076,0,0,0-3.5396,0c-.8597.4963-.9616,1.2634-.3089,1.8252l-41.7092,24.0808v-5.3233l24.8154-14.3271V169.0542l20.2042-11.6648a3.957,3.957,0,0,0,3.2311-.1455,1.07858,1.07858,0,0,0,0-2.0435,3.91117,3.91117,0,0,0-3.5395,0c-.8815.5088-.9603,1.3005-.252,1.8655l-20.2043,11.665v10.1153l-24.8154,14.3271v5.9702l-3.4761,2.0069-.0005,11.7099,13.767,7.9485-9.0462,5.2227-28.3302-16.3567.0004-18.5935,19.2367-11.1065a3.94624,3.94624,0,0,0,3.3007-.1125,1.07872,1.07872,0,0,0,.0001-2.0437,3.91262,3.91262,0,0,0-3.5396,0c-.8597.4966-.9615,1.2636-.3089,1.8254l-18.689,10.79.0004-15.0207,14.7653-8.5247.0005-28.2561a3.47419,3.47419,0,0,0,1.4896-.4077,1.07872,1.07872,0,0,0,0-2.0437,3.91241,3.91241,0,0,0-3.5395,0,1.07872,1.07872,0,0,0-.0001,2.0437,3.47374,3.47374,0,0,0,1.4895.4077l-.0005,27.9329-14.2048,8.2009.0012-49.8244h-.5606l-.0019,85.0571,28.3294,16.3567-10.1588,5.865-37.0271-21.378.001-50.913L342.585,149.6533l.0004-19.1509-15.7158-9.0737c.7083-.565.6294-1.3565-.252-1.8655a3.91241,3.91241,0,0,0-3.5395,0,1.07872,1.07872,0,0,0-.0001,2.0437,3.95666,3.95666,0,0,0,3.2313.1453l15.7156,9.0734-.0005,19.1509,17.7984,10.2764-.001,50.9141,37.0263,21.3776-7.5293,4.3472L339.3472,208.04l.0009-43.4394-.1401-.0811-44.2334-25.5376c.7087-.5647.6301-1.3567-.2515-1.8657a3.91241,3.91241,0,0,0-3.5395,0,1.07874,1.07874,0,0,0-.0001,2.0437,3.95853,3.95853,0,0,0,3.2311.1455l44.373,25.6184-.001,43.4404.1402.0811,49.8307,28.7705-12.2024,7.0452-83.142-48.0018V174.6435l-.1406-.081-69.6048-40.1866c.7084-.5649.6296-1.3566-.2519-1.8654a3.91055,3.91055,0,0,0-3.5395,0,1.07851,1.07851,0,0,0-.0001,2.0434,3.956,3.956,0,0,0,3.231.1455l69.7453,40.2674v21.6157l.1407.081,46.6233,26.9185-36.9827.001L259.82,198.8647c.7085-.5649.6296-1.3567-.2518-1.8657a3.912,3.912,0,0,0-3.5396.0002,1.0786,1.0786,0,0,0,0,2.0435,3.95768,3.95768,0,0,0,3.2314.1453l43.2234,24.9555,38.1039-.001,35.4065,20.4424-14.1831,8.1885-30.4342-17.5713H282.5088l-55.5811-32.0898-30.834.0009-12.5709-7.258c.7083-.565.6294-1.3565-.252-1.8655a3.91241,3.91241,0,0,0-3.5395,0,1.07872,1.07872,0,0,0-.0001,2.0437,3.95852,3.95852,0,0,0,3.2311.1455l12.9811,7.4949,30.8339-.001,41.9988,24.2481H232.5l-17.4703-10.0862c.7083-.565.6295-1.3565-.2519-1.8655a3.91262,3.91262,0,0,0-3.5396,0,1.07874,1.07874,0,0,0,0,2.0437,3.95732,3.95732,0,0,0,3.2306.1455l17.8808,10.323h37.3973l12.6115,7.2813h48.8677l8.5161,4.917H318.9673l-.065.0371-10.4205,6.0166-43.4183.0009-12.2481-7.0712H228.2552a1.43985,1.43985,0,0,0-.685-.7415,3.912,3.912,0,0,0-3.5396.0002,1.0786,1.0786,0,0,0,0,2.0435,3.91241,3.91241,0,0,0,3.5395,0,1.43835,1.43835,0,0,0,.6851-.7417H252.665l12.2481,7.0713,42.5978-.001-11.7322,6.7739a3.95872,3.95872,0,0,0-3.2315.1453,1.0786,1.0786,0,0,0,0,2.0435,3.91117,3.91117,0,0,0,3.5395,0c.8813-.5088.9604-1.3001.2528-1.8648l22.7782-13.1516H340.713l20.5364,11.8572-7.5883,4.3811.4204.2431,4.4623,2.5765-14.1947.0007-18.5566-10.7141c.7079-.565.629-1.3565-.2523-1.8653a3.91117,3.91117,0,0,0-3.5395,0,1.0786,1.0786,0,0,0-.0001,2.0435,3.95775,3.95775,0,0,0,3.2306.1458l18.9675,10.9506,15.3159-.0009,10.3866,5.9968-6.3876,3.6877H352.1851l-.065.0371-9.8955,5.7129H334.792l-16.786-9.6914c.7529-.5666.6907-1.3781-.2076-1.8967a3.91055,3.91055,0,0,0-3.5395,0,1.07858,1.07858,0,0,0-.0001,2.0435,3.96629,3.96629,0,0,0,3.176.1713l17.2068,9.9339h7.7334l.0649-.0371,9.8955-5.7129h10.2073L342.125,282.8916H331.1006L308.1187,269.624H238.8154L195.829,244.8061c.7443-.5664.6791-1.3742-.216-1.8909a3.91138,3.91138,0,0,0-3.5396,0,1.07856,1.07856,0,0,0,0,2.0435,3.96526,3.96526,0,0,0,3.1867.1665l43.4049,25.0593h69.3033l22.9819,13.2676h11.3252l.0649-.0371,28.1223-16.2358,7.377,4.259-31.7761,18.3469H323.6516l-18.491-10.6758-47.4554.001a1.43859,1.43859,0,0,0-.6852-.7417,3.91241,3.91241,0,0,0-3.5395,0,1.0786,1.0786,0,0,0-.0001,2.0435,3.91138,3.91138,0,0,0,3.5396,0,1.4392,1.4392,0,0,0,.6849-.7412l47.3054-.001,17.5187,10.1152H255.6582l-.0645.0371-63.7271,36.7935a3.9575,3.9575,0,0,0-3.231.1455,1.07872,1.07872,0,0,0,0,2.0437,3.91241,3.91241,0,0,0,3.5395,0c.8812-.5088.9604-1.3003.2528-1.865l63.3807-36.5942h90.4053l.0649-.0371,32.1221-18.5462,8.3818,4.8391-44.311,25.584H264.4473l-.0645.0371-68.3242,39.4473-79.6084.001-46.426-26.8052c.7073-.565.6281-1.3562-.2529-1.8648a3.91241,3.91241,0,0,0-3.5395,0,1.07872,1.07872,0,0,0-.0001,2.0437,3.95819,3.95819,0,0,0,3.2308.1456l46.8373,27.0412,79.9092-.001.0654-.0371,68.3233-39.4472h56.8346l-83.4538,48.1816-.001,12.6836-33.2898,19.2195a3.9569,3.9569,0,0,0-3.2304.1457,1.07874,1.07874,0,0,0,0,2.0437,3.91262,3.91262,0,0,0,3.5396,0c.8815-.509.9603-1.3008.2518-1.8657l33.2894-19.219.001-12.6836,84.0158-48.5058h19.5073l-42.0114,24.2558v5.3457l-20.103,11.607a3.95619,3.95619,0,0,0-3.2311.1455,1.07853,1.07853,0,0,0,0,2.0434,3.91148,3.91148,0,0,0,3.5395,0c.8814-.5088.9604-1.3003.2524-1.8652l10.9455-6.3193v14.6494l-63.2357,36.5092a3.95765,3.95765,0,0,0-3.2309.1455,1.07881,1.07881,0,0,0,0,2.0438,3.91241,3.91241,0,0,0,3.5395,0c.8814-.5091.9604-1.3006.2522-1.8655l63.2354-36.5088V337.6352l8.5967-4.9634v-5.3457l42.357-24.455-.1404-.2434,44.5161-25.7022,8.0919,4.6719L349.7061,308l-.001,43.4404L265.5967,400h1.1218l69.637-40.2044-.001,39.2884-1.5866.916H335.89l1.025-.5918.001-39.9363,13.3496-7.7073.001-43.4404,45.7306-26.4028,7.1247,4.1135-35.263,20.3586-.0005,23.8145.1401.081,40.0938,23.1475-.0005,8.0752-22.6746,13.0906a3.95641,3.95641,0,0,0-3.2302.146,1.07851,1.07851,0,0,0-.0001,2.0434,3.91241,3.91241,0,0,0,3.5395,0c.8815-.509.9604-1.3005.2522-1.8655l22.6737-13.0903.0005-8.7236-.1401-.0811-40.0938-23.1474.0005-23.1661,26.6441-15.3823-.0005,9.9204-12.2147,7.052a3.95785,3.95785,0,0,0-3.2308.1458,1.07874,1.07874,0,0,0,0,2.0437,3.91148,3.91148,0,0,0,3.5395-.0003c.8813-.5088.9603-1.3.2525-1.865l12.214-7.052.0005-10.5683,8.0593-4.6528,9.5286,5.5012-.0005,17.2776-17.9741,10.3769v11.9453l.1401.0811,37.8373,21.8452c-.708.5649-.629,1.3562.2523,1.8652a3.91179,3.91179,0,0,0,3.5395-.0002,1.0786,1.0786,0,0,0,.0001-2.0435,3.95656,3.95656,0,0,0-3.2306-.1455l-37.9781-21.9265V319.8388l17.4134-10.0529-.0004,11.9084,23.2894,13.4465c-.7076.565-.6284,1.3565.2528,1.865a3.91148,3.91148,0,0,0,3.5395,0,1.07855,1.07855,0,0,0,.0001-2.0434,3.95642,3.95642,0,0,0-3.2312-.1455l-23.29-13.4468.001-29.1863,6.6928,3.864.1402-.0801,10.8881-6.2863,9.9883,5.7668-.0005,14.0137,26.5464,15.3262-.0004,13.2097a3.47285,3.47285,0,0,0-1.4893.4077,1.07874,1.07874,0,0,0-.0001,2.0437,3.91262,3.91262,0,0,0,3.5396,0,1.07872,1.07872,0,0,0,0-2.0437,3.47419,3.47419,0,0,0-1.4896-.4077l.0004-13.534L442.042,309.1377l.0005-13.3658,42.9756,24.8121-.001,26.3007L461.709,360.3418H440.3203l-.0649.0371-36.7023,21.1906a3.9578,3.9578,0,0,0-3.2311.1456,1.07874,1.07874,0,0,0,0,2.0437,3.91169,3.91169,0,0,0,3.5396-.0003c.8811-.5085.9603-1.3.2527-1.8647l36.3564-20.9915h20.2674l-67.4249,38.928a3.95752,3.95752,0,0,0-3.231.1455c-.013.0076-.0215.0166-.0342.0242h4.0941l91.4355-52.791.001-26.9493-.1401-.081-53.3836-30.8213,10.7433-6.2026,91.1447,52.6225-.0005,31.3994,31.1353,17.9768c-.7078.565-.6287,1.3562.2526,1.865a3.91241,3.91241,0,0,0,3.5395,0,1.07874,1.07874,0,0,0,0-2.0437,3.95779,3.95779,0,0,0-3.2308-.1455l-31.1361-17.9768.0005-31.3994-.1401-.0811-91.0039-52.5412,10.2284-5.9055,90.1363,52.0395h53.75295L600,330.4214v-.6473l-2.37256-1.3698H543.8745l-76.0883-43.9297h15.3032l25.9692,14.9931,20.0034-.0009.065-.0371,27.743-16.0169a3.958,3.958,0,0,0,3.2307-.1457,1.07874,1.07874,0,0,0,.0001-2.0437,3.912,3.912,0,0,0-3.5396,0c-.8813.5087-.9604,1.3002-.2525,1.8652l-27.3971,15.8176-19.7026.001L483.2397,283.914H466.8153l-12.6663-7.3127,27.3033-15.7637,7.764,4.4824-.0005,11.7659,19.7226,11.387c-.7077.5647-.6286,1.3562.2525,1.8647a3.91076,3.91076,0,0,0,3.5396,0,1.07853,1.07853,0,0,0,0-2.0434,3.95729,3.95729,0,0,0-3.2309-.1456l-19.7232-11.3869.0005-11.1179,21.0332,12.1433H520.77l.065-.0371,11.8751-6.8555a3.95759,3.95759,0,0,0,3.2302-.146,1.07858,1.07858,0,0,0,.0001-2.0435,3.91138,3.91138,0,0,0-3.5396,0c-.8814.5088-.9603,1.3006-.2521,1.8655l-11.5291,6.656h-9.6592l-28.9468-16.7131,5.2584-3.0359-.4204-.2432-16.3622-9.446,7.8586-4.5374h11.883l8.5033,4.91c-.6774.5634-.586,1.3413.2834,1.8432a3.91076,3.91076,0,0,0,3.5396,0,1.07853,1.07853,0,0,0,0-2.0434,3.9507,3.9507,0,0,0-3.2688-.1277l-8.9072-5.1426H479.3189l20.0387-11.5693,47.1517,27.2226H580.437l.065-.0371,19.1028-11.029a3.48809,3.48809,0,0,0,.3952.1101v-2.5791a2.98739,2.98739,0,0,0-.7038.2797c-.88122.5088-.96038,1.3001-.25262,1.865l-18.757,10.8299H546.6597l-36.3642-20.9951,15.5639-.001,15.2146,8.7849c-.7082.5649-.6293,1.3564.2521,1.8652a3.91076,3.91076,0,0,0,3.5396,0,1.07853,1.07853,0,0,0,0-2.0434,3.95764,3.95764,0,0,0-3.2304-.146l-15.6255-9.0213-16.685.001-9.4059-5.4304,23.9377-13.8206L600,216.9756v-.5606l-75.1725.001,9.4957-5.4824,56.63286-.001.06494-.0371L600,205.7114v-.6475l-9.19434,5.3081-56.63276.001-.065.0371-64.1798,37.054-7.1246-4.1133,67.4748-38.9563,49.3467-.001.0649-.0371L600,192.6303v-.6477L579.4746,203.833l-49.3467.001-.0649.0371-67.8208,39.1557-8.0923-4.6719,131.59522-75.977.001-27.5581L600,126.5903ZM486.1509,257.4775l-65.6856,37.9238-65.6831-37.9228,65.6851-37.9229Z" transform="translate(0)" fill="#42e8e0" opacity="0.1"/></g></g></svg>