<?xml version="1.0" encoding="utf-8"?>
<!-- Generator: Adobe Illustrator 22.0.0, SVG Export Plug-In . SVG Version: 6.00 Build 0)  -->
<svg version="1.1" id="Layer_1" xmlns="http://www.w3.org/2000/svg" xmlns:xlink="http://www.w3.org/1999/xlink" x="0px" y="0px"
	 viewBox="0 0 514 512" style="enable-background:new 0 0 514 512;" xml:space="preserve">
<style type="text/css">
	.st0{fill:#FFFFFF;}
</style>
<path class="st0" d="M440.8,429.4H81.3c-14.2,0-25.8-15.2-25.8-34.1s11.5-34.1,25.8-34.1h359.6c14.2,0,25.6,15.2,25.6,34.1
	S455,429.4,440.8,429.4z"/>
<path class="st0" d="M440.7,293.1H81.2c-14.2,0-25.7-15.2-25.7-34.1s11.5-34.1,25.7-34.1h359.6c14.2,0,25.7,15.2,25.7,34.1
	S454.9,293.1,440.7,293.1z"/>
<path class="st0" d="M440.7,156.8H81.2c-14.2,0-25.7-15.2-25.7-34.1S67,88.6,81.2,88.6h359.6c14.2,0,25.7,15.2,25.7,34.1
	S455,156.8,440.7,156.8z"/>
</svg>
